<?xml version="1.0" encoding="UTF-8"?>
<svg width="18px" height="18px" viewBox="0 0 18 18" version="1.1" xmlns="http://www.w3.org/2000/svg" xmlns:xlink="http://www.w3.org/1999/xlink">
    <!-- Generator: Sketch 52.5 (67469) - http://www.bohemiancoding.com/sketch -->
    <title>archive-company</title>
    <desc>Created with Sketch.</desc>
    <g id="pages/clients/clients-list" stroke="none" stroke-width="1" fill="none" fill-rule="evenodd">
        <g id="pages/clients/clients-list/clients-list_test" transform="translate(-139.000000, -374.000000)" fill="#8EA4B5">
            <g id="list-item" transform="translate(110.000000, 346.000000)">
                <g id="archive-company" transform="translate(20.000000, 19.000000)">
                    <path d="M14,9 L22,9 L22,13 L27,13 L27,19 L26,19 L26,27 L10,27 L10,19 L9,19 L9,13 L14,13 L14,9 Z M16,13 L20,13 L20,11 L16,11 L16,13 Z M14,24 L15,24 L15,17.35 L21,24 L22,24 L22,16 L21,16 L21,22.65 L15,16 L14,16 L14,24 Z"></path>
                </g>
            </g>
        </g>
    </g>
</svg>