<?xml version="1.0" encoding="UTF-8"?>
<svg width="13px" height="13px" viewBox="0 0 13 13" version="1.1" xmlns="http://www.w3.org/2000/svg" xmlns:xlink="http://www.w3.org/1999/xlink">
    <!-- Generator: Sketch 52.5 (67469) - http://www.bohemiancoding.com/sketch -->
    <title>card</title>
    <desc>Created with Sketch.</desc>
    <g id="pages/clients/clients-list" stroke="none" stroke-width="1" fill="none" fill-rule="evenodd">
        <g id="pages/clients/clients-list/clients-list_test-2" transform="translate(-145.000000, -730.000000)" fill="#475364">
            <g id="list-item" transform="translate(110.000000, 422.000000)">
                <g id="drop-down" transform="translate(0.000000, 74.000000)">
                    <g id="button-panel" transform="translate(20.000000, 222.000000)">
                        <g id="Перейти-в-карточку">
                            <path d="M17,12 L18.9957275,12 C20.3319092,12 21,12.6666667 21,14 L21,16 C21,17.3333333 20.3319092,18 18.9957275,18 L17,18 C15.6666667,18 15,17.3333333 15,16 L15,14 C15,12.6666667 15.6666667,12 17,12 Z M24,12 L25.9957275,12 C27.3319092,12 28,12.6666667 28,14 L28,16 C28,17.3333333 27.3319092,18 25.9957275,18 L24,18 C22.6666667,18 22,17.3333333 22,16 L22,14 C22,12.6666667 22.6666667,12 24,12 Z M17,19 L18.9957275,19 C20.3319092,19 21,19.6666667 21,21 L21,23 C21,24.3333333 20.3319092,25 18.9957275,25 L17,25 C15.6666667,25 15,24.3333333 15,23 L15,21 C15,19.6666667 15.6666667,19 17,19 Z M24,19 L25.9957275,19 C27.3319092,19 28,19.6666667 28,21 L28,23 C28,24.3333333 27.3319092,25 25.9957275,25 L24,25 C22.6666667,25 22,24.3333333 22,23 L22,21 C22,19.6666667 22.6666667,19 24,19 Z" id="card"></path>
                        </g>
                    </g>
                </g>
            </g>
        </g>
    </g>
</svg>