<?xml version="1.0" encoding="UTF-8"?>
<svg width="18px" height="16px" viewBox="0 0 18 16" version="1.1" xmlns="http://www.w3.org/2000/svg" xmlns:xlink="http://www.w3.org/1999/xlink">
    <!-- Generator: Sketch 52.5 (67469) - http://www.bohemiancoding.com/sketch -->
    <title>Clients</title>
    <desc>Created with Sketch.</desc>
    <g id="pages/clients/clients-list" stroke="none" stroke-width="1" fill="none" fill-rule="evenodd">
        <g id="pages/clients/clients-list/clients-list_test" transform="translate(-31.000000, -98.000000)" fill="#FFFFFF" fill-rule="nonzero">
            <g id="sidebar-mini" transform="translate(0.000000, 66.000000)">
                <g id="Клиенты" transform="translate(15.000000, 20.000000)">
                    <path d="M27.4139719,14.7461925 C28.2462445,15.2973767 28.8298462,16.2300951 28.9360985,17.3127697 C29.2755219,17.4802841 29.6522348,17.5766168 30.0516357,17.5766168 C31.5097413,17.5766168 32.6915459,16.3283259 32.6915459,14.788427 C32.6915459,13.2482909 31.5097413,12 30.0516357,12 C28.6074575,12.0004745 27.4359862,13.2264618 27.4139719,14.7461925 Z M25.1327593,20.4554447 C26.5908648,20.4554447 27.7726694,19.2069165 27.7726694,17.6670176 C27.7726694,16.1271188 26.5906402,14.8788279 25.1327593,14.8788279 C23.6748783,14.8788279 22.4923999,16.127356 22.4923999,17.6672549 C22.4923999,19.2071538 23.6748783,20.4554447 25.1327593,20.4554447 Z M26.2525646,21.3369122 L24.0125047,21.3369122 C22.1487083,21.3369122 21,22.247327 21,24.2159773 L21,27.1548352 C22.2930987,27.7182784 23.7677274,28 25.4238862,28 C27.0800449,28 28.6054162,27.5945638 30,26.7836914 L30,24.2159773 C30.0006739,22.247327 28.1163609,21.3369122 26.2525646,21.3369122 Z M30.9995507,18.5 L28.7767877,18.5 C28.7607638,19.1262414 28.3351679,19.792908 27.5,20.5 C29.8333333,21.0579415 31,22.2980242 31,24.2202482 L31,25.1119185 C32.4631224,25.0552894 33.4631224,24.6846499 34,24 L34,21.3369122 C34,19.3684991 32.8631224,18.5 30.9995507,18.5 Z M20.0172441,17.5770913 C20.5336799,17.5770913 21.0141741,17.4178815 21.4212126,17.1466789 C21.5506024,16.2552459 22.0030172,15.4762802 22.649292,14.9457387 C22.6519876,14.8935388 22.6567049,14.8418134 22.6567049,14.7891388 C22.6567049,13.2490027 21.4746757,12.0007118 20.0172441,12.0007118 C18.5589139,12.0007118 17.3773339,13.2490027 17.3773339,14.7891388 C17.3773339,16.3285632 18.5589139,17.5770913 20.0172441,17.5770913 Z M22.5,20.5 C21.8437276,19.7667148 21.5067127,19.1000481 21.4889554,18.5 L19.0011232,18.5 C17.1373268,18.5 16,19.3684991 16,21.3369122 L16,24 C17.0764974,25.1852214 18.4098307,25.549929 20,25.0941231 L20,24.2202482 C20,22.2980242 20.8333333,21.0579415 22.5,20.5 Z" id="Clients"></path>
                </g>
            </g>
        </g>
    </g>
</svg>