<?xml version="1.0" encoding="UTF-8"?>
<svg width="14px" height="14px" viewBox="0 0 14 14" version="1.1" xmlns="http://www.w3.org/2000/svg" xmlns:xlink="http://www.w3.org/1999/xlink">
    <!-- Generator: Sketch 52.5 (67469) - http://www.bohemiancoding.com/sketch -->
    <title>no-contacts</title>
    <desc>Created with Sketch.</desc>
    <g id="pages/clients/clients-list" stroke="none" stroke-width="1" fill="none" fill-rule="evenodd">
        <g id="pages/clients/clients-list/clients-list_test" transform="translate(-507.000000, -376.000000)" fill="#FFFFFF" fill-rule="nonzero" stroke="#979797">
            <g id="list-item" transform="translate(110.000000, 346.000000)">
                <g id="no-contacts" transform="translate(386.000000, 19.000000)">
                    <path d="M19.4261822,18.0000282 C22.0159192,15.4102882 23.4420662,13.9841395 23.7046233,13.7215821 C24.0984589,13.327746 24.0984589,12.6892132 23.7046233,12.2954334 C23.3107876,11.9015973 22.6723119,11.9015973 22.2784763,12.2954334 L17.9999789,16.5739358 L13.7214815,12.2953771 C13.3276458,11.901541 12.6891701,11.901541 12.2953345,12.2953771 C11.9015552,12.6892132 11.9015552,13.327746 12.2953345,13.7215258 L16.5738319,17.9999718 L12.2953345,22.2784742 C11.9015552,22.6723103 11.9015552,23.3108432 12.2953345,23.7046229 C12.6891701,24.098459 13.3276458,24.098459 13.7214815,23.7046229 L17.9999789,19.4261205 L22.2784763,23.7046229 C22.6722556,24.098459 23.3107876,24.098459 23.7046233,23.7046229 C24.0984589,23.3107868 24.0984589,22.6723103 23.7046233,22.2784742 L19.4261822,18.0000282 Z"></path>
                </g>
            </g>
        </g>
    </g>
</svg>