<?xml version="1.0" encoding="UTF-8"?>
<svg width="14px" height="18px" viewBox="0 0 14 18" version="1.1" xmlns="http://www.w3.org/2000/svg" xmlns:xlink="http://www.w3.org/1999/xlink">
    <!-- Generator: Sketch 52.5 (67469) - http://www.bohemiancoding.com/sketch -->
    <title>Documents</title>
    <desc>Created with Sketch.</desc>
    <g id="pages/clients/clients-list" stroke="none" stroke-width="1" fill="none" fill-rule="evenodd">
        <g id="pages/clients/clients-list/clients-list_test" transform="translate(-507.000000, -222.000000)" fill="#FFFFFF">
            <g id="list-item" transform="translate(110.000000, 194.000000)">
                <g id="approved-contract" transform="translate(386.000000, 19.000000)">
                    <path d="M24,27 C25,27 25,26 25,26 L25,10 C25,10 25,9 24,9 L16,9 L16,14 L11,14 L11,26 C11,26 11,27 12,27 L24,27 Z M14,23 L14,22 L18,22 L18,23 L14,23 Z M14,20 L14,19 L22,19 L22,20 L14,20 Z M22,16 L22,17 L14,17 L14,16 L22,16 Z M15,9 L15,13 L11,13 L15,9 Z" id="Documents"></path>
                </g>
            </g>
        </g>
    </g>
</svg>