<?xml version="1.0" encoding="UTF-8"?>
<svg width="14px" height="18px" viewBox="0 0 14 18" version="1.1" xmlns="http://www.w3.org/2000/svg" xmlns:xlink="http://www.w3.org/1999/xlink">
    <!-- Generator: Sketch 52.5 (67469) - http://www.bohemiancoding.com/sketch -->
    <title>Documents</title>
    <desc>Created with Sketch.</desc>
    <g id="pages/clients/clients-list" stroke="none" stroke-width="1" fill="none" fill-rule="evenodd">
        <g id="pages/clients/clients-list/clients-list_test" transform="translate(-507.000000, -526.000000)" fill="#FFFFFF">
            <g id="list-item" transform="translate(110.000000, 498.000000)">
                <g id="dissolved-contact" transform="translate(386.000000, 19.000000)">
                    <path d="M25,19 L24.0147705,19 L22.5,17 L21,19 L19.5,17 L18,19 L16.5,17 L15,19 L13.5,17 L12,19 L11,19 L11,14 L16,14 L16,9 L24,9 C25,9 25,10 25,10 L25,19 Z M15,9 L15,13 L11,13 L15,9 Z M24,27 L12,27 C11,27 11,26 11,26 L11,21 L12,21 L13.5,19 L15,21 L16.5,19 L18,21 L19.5,19 L21,21 L22.5,19 L24.0166016,21 L25,21 L25,26 C25,26 25,27 24,27 Z" id="Documents"></path>
                </g>
            </g>
        </g>
    </g>
</svg>