<?xml version="1.0" encoding="UTF-8"?>
<svg width="14px" height="14px" viewBox="0 0 14 14" version="1.1" xmlns="http://www.w3.org/2000/svg" xmlns:xlink="http://www.w3.org/1999/xlink">
    <!-- Generator: Sketch 52.5 (67469) - http://www.bohemiancoding.com/sketch -->
    <title>recycle</title>
    <desc>Created with Sketch.</desc>
    <g id="pages/clients/clients-list" stroke="none" stroke-width="1" fill="none" fill-rule="evenodd">
        <g id="pages/clients/clients-list/clients-list_test" transform="translate(-1022.000000, -233.000000)" fill="#475364" fill-rule="nonzero">
            <g id="list-item" transform="translate(110.000000, 194.000000)">
                <path d="M916.371352,48.3588628 C916.02783,48.3588628 915.713679,48.1189138 915.620507,47.7548531 L915.523486,47.3757293 L914.156895,49.7431845 L915.835815,49.7431845 C916.265217,49.7431845 916.613599,50.1080938 916.613599,50.5578657 C916.613599,51.0078498 916.265217,51.449646 915.835815,51.449646 L912.781281,51.449646 C912.500549,51.449646 912.238159,51.2142781 912.100224,50.9582052 C911.962491,50.7021322 911.966947,50.3879283 912.112174,50.1365228 L914.136641,46.6293625 L913.878797,46.7017079 C913.463776,46.8181818 913.037413,46.5601994 912.926214,46.1254906 C912.815015,45.6909939 913.061314,45.2441922 913.476132,45.1277183 L915.601062,44.5315583 C916.016285,44.4148722 916.442649,44.6728546 916.553645,45.1075634 L917.123007,47.333298 C917.234206,47.7677947 916.98811,48.2145964 916.573089,48.3310704 C916.505641,48.3499523 916.43799,48.3588628 916.371352,48.3588628 Z M917.003504,43.2579824 C916.636284,43.0246101 916.519414,42.5234963 916.742217,42.1388565 L918.333838,39.3920653 C918.474812,39.1487217 918.726579,39.0002121 918.998196,39 C919.270217,39 919.521782,39.1480853 919.662958,39.3907924 L921.779178,43.0299141 L921.877414,42.646335 C921.988613,42.2118384 922.414976,41.9536438 922.829997,42.0703299 C923.244815,42.1868039 923.491113,42.6333935 923.379915,43.0681023 L922.810552,45.2938368 C922.71738,45.6578976 922.403026,45.8978466 922.059707,45.8978466 C921.993069,45.8978466 921.925418,45.8889361 921.85797,45.8698419 L919.733039,45.2734698 C919.318019,45.1569959 919.071923,44.7104063 919.182919,44.2756975 C919.294118,43.8412008 919.720684,43.5832184 920.135502,43.6996924 L920.388485,43.7707648 L918.999816,41.3829426 L918.071944,42.9843004 C917.849141,43.3689403 917.370926,43.4913546 917.003504,43.2579824 Z M925.227783,51.449646 L920.821734,51.449646 L921.051424,51.6093137 C921.355246,51.9273364 921.355246,52.4433012 921.051424,52.7613239 C920.899715,52.9204413 920.700611,53 920.501506,53 C920.302402,53 920.103297,52.9204413 919.951589,52.7613239 L918.396021,51.1319614 C918.092199,50.8139387 918.092199,50.2979739 918.396021,49.9799512 L919.951589,48.3505887 C920.255208,48.0323539 920.747805,48.0323539 921.051424,48.3505887 C921.355246,48.6686114 921.355246,49.1845762 921.051424,49.5025989 L920.821734,49.7431845 L923.840509,49.7431845 L922.954969,48.2143842 C922.732166,47.8297444 922.849239,47.3288427 923.216459,47.0954705 C923.583678,46.8620982 924.062096,46.9845126 924.284899,47.3691524 L925.887255,50.1352499 C926.032887,50.3868675 926.037748,50.7010714 925.900016,50.9575687 C925.762283,51.214066 925.508717,51.449646 925.227783,51.449646 Z" id="recycle"></path>
            </g>
        </g>
    </g>
</svg>